# xmcd
#
# Track frame offsets:
#	150
#	20328
#	43130
#	65033
#	86441
#	97742
#	112585
#	135323
#	150804
#	165161
#	184531
#	203362
#
# Disc length: 2837 seconds
#
# Revision: 0
# Processed by: cddbd v1.5.2PL0 Copyright (c) Steve Scherf et al.
# Submitted via: FairStars CD Ripper 1.01
#
DISCID=760b130c
DTITLE=The Moe Hansum Band - Poor Boys Long Way From Home
DYEAR=2004
DGENRE=Country
TTITLE0=Pony Blues
TTITLE1=Way You Smell
TTITLE2=Guilty
TTITLE3=My Old House
TTITLE4=Left Is Lucy
TTITLE5=Two Sips Of Water
TTITLE6=Motherless Child
TTITLE7=Jacks Or Better
TTITLE8=Back Door Blues
TTITLE9=Great Big Fanny
TTITLE10=Poor Boy Long Ways From Home
TTITLE11=Poor Boy (One Moe Time)
EXTD=
EXTT0=
EXTT1=
EXTT2=
EXTT3=
EXTT4=
EXTT5=
EXTT6=
EXTT7=
EXTT8=
EXTT9=
EXTT10=
EXTT11=
PLAYORDER=
